<?xml version="1.0" encoding="utf-8"?>
<!-- Generator: Adobe Illustrator 28.2.0, SVG Export Plug-In . SVG Version: 6.00 Build 0)  -->
<svg version="1.1" xmlns="http://www.w3.org/2000/svg" xmlns:xlink="http://www.w3.org/1999/xlink" x="0px" y="0px"
	 viewBox="0 0 50 50" style="enable-background:new 0 0 50 50;" xml:space="preserve">
<style type="text/css">
	.st0{fill:#FFFFFF;}
	.st1{display:none;}
	.st2{display:inline;}
</style>
<g id="Layer_1">
	<g>
		<path class="st0" d="M25,33.85c-4.88,0-8.85-3.97-8.85-8.85c0-4.88,3.97-8.85,8.85-8.85c4.88,0,8.85,3.97,8.85,8.85
			C33.85,29.88,29.88,33.85,25,33.85z"/>
		<path d="M25,17.65c4.05,0,7.35,3.3,7.35,7.35c0,4.05-3.3,7.35-7.35,7.35c-4.05,0-7.35-3.3-7.35-7.35
			C17.65,20.95,20.95,17.65,25,17.65 M25,14.65c-5.72,0-10.35,4.63-10.35,10.35c0,5.72,4.63,10.35,10.35,10.35S35.35,30.72,35.35,25
			C35.35,19.28,30.72,14.65,25,14.65L25,14.65z"/>
	</g>
</g>
<g id="Layer_1_copy" class="st1">
	<g class="st2">
		<circle cx="25" cy="25" r="10.35"/>
	</g>
</g>
</svg>
